<svg xmlns="http://www.w3.org/2000/svg" xmlns:xlink="http://www.w3.org/1999/xlink" width="339" zoomAndPan="magnify" viewBox="0 0 254.25 70.499998" height="94" preserveAspectRatio="xMidYMid meet" version="1.0"><defs><g/><clipPath id="0825d95b58"><path d="M 0.523438 0 L 54.886719 0 L 54.886719 57 L 0.523438 57 Z M 0.523438 0 " clip-rule="nonzero"/></clipPath><clipPath id="13bf2d40d5"><path d="M 24 41 L 49 41 L 49 64.046875 L 24 64.046875 Z M 24 41 " clip-rule="nonzero"/></clipPath></defs><g clip-path="url(#0825d95b58)"><path fill="#00525a" d="M 44.914062 40.378906 C 47.746094 40.378906 50.050781 42.679688 50.050781 45.515625 C 50.050781 48.347656 47.746094 50.652344 44.914062 50.652344 C 42.078125 50.652344 39.777344 48.347656 39.777344 45.515625 C 39.777344 42.679688 42.078125 40.378906 44.914062 40.378906 Z M 31.792969 1.175781 C 29.476562 2.199219 27.871094 3.914062 27.144531 6.125 C 26.316406 8.644531 26.570312 11.433594 27.863281 13.988281 C 28.507812 15.269531 29.332031 16.449219 30.191406 17.640625 C 31.03125 18.804688 31.929688 19.996094 32.867188 21.175781 C 32.902344 21.222656 32.941406 21.257812 32.988281 21.28125 C 35.375 24.851562 36.632812 29.011719 36.632812 33.324219 C 36.632812 35.863281 36.199219 38.351562 35.339844 40.714844 L 34.210938 40.714844 L 34.210938 27.226562 L 24.351562 27.226562 L 24.351562 40.714844 L 10.152344 40.714844 L 10.152344 50.835938 L 24.351562 50.835938 L 24.351562 52.871094 C 21.40625 54.289062 18.246094 55.007812 14.949219 55.007812 C 9.824219 55.007812 4.851562 53.1875 0.945312 49.882812 L 0.542969 50.285156 C 0.738281 50.519531 0.949219 50.753906 1.164062 50.988281 L 1.179688 51.007812 C 5.296875 54.792969 10.648438 56.875 16.242188 56.875 C 19.1875 56.875 22.050781 56.3125 24.746094 55.195312 C 27.757812 53.949219 30.511719 52.011719 32.714844 49.589844 C 34.925781 47.15625 36.597656 44.214844 37.546875 41.085938 C 38.179688 39 38.503906 36.824219 38.503906 34.617188 C 38.503906 29.257812 36.570312 24.082031 33.058594 20.039062 C 32.144531 18.863281 31.28125 17.703125 30.488281 16.585938 C 29.566406 15.277344 28.839844 14.15625 28.308594 12.929688 C 27.105469 10.167969 27.285156 6.914062 28.765625 4.636719 C 29.839844 2.984375 31.925781 1.726562 34.34375 1.265625 C 36.5625 0.84375 39.191406 1.042969 41.5625 1.808594 C 46.902344 3.53125 49.910156 8.996094 51.230469 12.101562 C 53.234375 16.824219 54.003906 22.265625 53.449219 27.84375 C 53.082031 31.523438 51.855469 36.640625 48.125 40.230469 C 47.1875 39.660156 46.085938 39.332031 44.914062 39.332031 C 41.503906 39.332031 38.730469 42.105469 38.730469 45.515625 C 38.730469 48.921875 41.503906 51.699219 44.914062 51.699219 C 48.324219 51.699219 51.097656 48.921875 51.097656 45.515625 C 51.097656 43.589844 50.214844 41.871094 48.835938 40.738281 C 49.207031 40.371094 49.558594 39.996094 49.875 39.617188 C 52.648438 36.300781 54.226562 31.550781 54.4375 25.882812 C 54.664062 19.828125 53.4375 14.132812 50.890625 9.421875 C 49.570312 6.976562 47.972656 4.949219 46.136719 3.402344 C 44.214844 1.785156 41.882812 0.773438 39.210938 0.402344 C 36.34375 0.00390625 33.847656 0.261719 31.792969 1.175781 " fill-opacity="1" fill-rule="nonzero"/></g><g clip-path="url(#13bf2d40d5)"><path fill="#00525a" d="M 44.914062 41.574219 C 42.738281 41.574219 40.972656 43.339844 40.972656 45.515625 C 40.972656 47.691406 42.738281 49.453125 44.914062 49.453125 C 47.089844 49.453125 48.851562 47.691406 48.851562 45.515625 C 48.851562 43.339844 47.089844 41.574219 44.914062 41.574219 Z M 39.683594 41.003906 L 38.917969 41.003906 C 38.0625 44.609375 36.316406 47.875 33.925781 50.550781 L 40.183594 50.550781 C 38.84375 49.289062 38.003906 47.5 38.003906 45.511719 C 38.003906 43.789062 38.636719 42.210938 39.683594 41.003906 Z M 24.636719 64.039062 L 24.636719 56.714844 C 28.25 55.480469 31.4375 53.335938 33.925781 50.550781 L 33.925781 64.039062 L 24.636719 64.039062 " fill-opacity="1" fill-rule="nonzero"/></g><g fill="#00525a" fill-opacity="1"><g transform="translate(62.848696, 39.269635)"><g><path d="M 1.3125 -13.203125 L 7.5625 -13.203125 C 9.007812 -13.203125 10.289062 -12.929688 11.40625 -12.390625 C 12.53125 -11.847656 13.398438 -11.078125 14.015625 -10.078125 C 14.628906 -9.085938 14.9375 -7.925781 14.9375 -6.59375 C 14.9375 -5.269531 14.628906 -4.109375 14.015625 -3.109375 C 13.398438 -2.117188 12.53125 -1.351562 11.40625 -0.8125 C 10.289062 -0.269531 9.007812 0 7.5625 0 L 1.3125 0 Z M 7.40625 -2.984375 C 8.539062 -2.984375 9.453125 -3.300781 10.140625 -3.9375 C 10.828125 -4.582031 11.171875 -5.46875 11.171875 -6.59375 C 11.171875 -7.726562 10.828125 -8.613281 10.140625 -9.25 C 9.453125 -9.894531 8.539062 -10.21875 7.40625 -10.21875 L 5.046875 -10.21875 L 5.046875 -2.984375 Z M 7.40625 -2.984375 "/></g></g></g><g fill="#00525a" fill-opacity="1"><g transform="translate(80.409953, 39.269635)"><g><path d="M 7.09375 -3.515625 L 5.046875 -3.515625 L 5.046875 0 L 1.3125 0 L 1.3125 -13.203125 L 7.359375 -13.203125 C 8.546875 -13.203125 9.578125 -13.003906 10.453125 -12.609375 C 11.335938 -12.210938 12.019531 -11.644531 12.5 -10.90625 C 12.976562 -10.175781 13.21875 -9.3125 13.21875 -8.3125 C 13.21875 -7.363281 12.992188 -6.53125 12.546875 -5.8125 C 12.097656 -5.101562 11.460938 -4.550781 10.640625 -4.15625 L 13.484375 0 L 9.484375 0 Z M 9.453125 -8.3125 C 9.453125 -8.925781 9.253906 -9.40625 8.859375 -9.75 C 8.472656 -10.09375 7.894531 -10.265625 7.125 -10.265625 L 5.046875 -10.265625 L 5.046875 -6.390625 L 7.125 -6.390625 C 7.894531 -6.390625 8.472656 -6.554688 8.859375 -6.890625 C 9.253906 -7.222656 9.453125 -7.695312 9.453125 -8.3125 Z M 9.453125 -8.3125 "/></g></g></g><g fill="#00525a" fill-opacity="1"><g transform="translate(96.349048, 39.269635)"><g><path d="M 2.65625 0.171875 C 2.050781 0.171875 1.539062 -0.0234375 1.125 -0.421875 C 0.71875 -0.828125 0.515625 -1.34375 0.515625 -1.96875 C 0.515625 -2.59375 0.71875 -3.097656 1.125 -3.484375 C 1.53125 -3.878906 2.039062 -4.078125 2.65625 -4.078125 C 3.289062 -4.078125 3.804688 -3.878906 4.203125 -3.484375 C 4.609375 -3.097656 4.8125 -2.59375 4.8125 -1.96875 C 4.8125 -1.34375 4.601562 -0.828125 4.1875 -0.421875 C 3.78125 -0.0234375 3.269531 0.171875 2.65625 0.171875 Z M 2.65625 0.171875 "/></g></g></g><g fill="#00525a" fill-opacity="1"><g transform="translate(103.668042, 39.269635)"><g/></g></g><g fill="#00525a" fill-opacity="1"><g transform="translate(111.137944, 39.269635)"><g><path d="M 13.234375 0 L 13.203125 -7 L 9.8125 -1.296875 L 8.140625 -1.296875 L 4.765625 -6.8125 L 4.765625 0 L 1.3125 0 L 1.3125 -13.203125 L 4.390625 -13.203125 L 9.03125 -5.578125 L 13.5625 -13.203125 L 16.640625 -13.203125 L 16.671875 0 Z M 13.234375 0 "/></g></g></g><g fill="#00525a" fill-opacity="1"><g transform="translate(131.113578, 39.269635)"><g><path d="M 1.3125 -13.203125 L 5.046875 -13.203125 L 5.046875 0 L 1.3125 0 Z M 1.3125 -13.203125 "/></g></g></g><g fill="#00525a" fill-opacity="1"><g transform="translate(139.488863, 39.269635)"><g><path d="M 10.171875 -6.890625 L 13.46875 -6.890625 L 13.46875 -1.421875 C 12.707031 -0.878906 11.835938 -0.460938 10.859375 -0.171875 C 9.878906 0.117188 8.898438 0.265625 7.921875 0.265625 C 6.535156 0.265625 5.289062 -0.0234375 4.1875 -0.609375 C 3.082031 -1.191406 2.210938 -2.003906 1.578125 -3.046875 C 0.953125 -4.097656 0.640625 -5.28125 0.640625 -6.59375 C 0.640625 -7.914062 0.953125 -9.097656 1.578125 -10.140625 C 2.210938 -11.191406 3.085938 -12.007812 4.203125 -12.59375 C 5.328125 -13.175781 6.59375 -13.46875 8 -13.46875 C 9.226562 -13.46875 10.332031 -13.257812 11.3125 -12.84375 C 12.289062 -12.425781 13.109375 -11.828125 13.765625 -11.046875 L 11.390625 -8.90625 C 10.492188 -9.882812 9.425781 -10.375 8.1875 -10.375 C 7.050781 -10.375 6.132812 -10.03125 5.4375 -9.34375 C 4.75 -8.65625 4.40625 -7.738281 4.40625 -6.59375 C 4.40625 -5.863281 4.5625 -5.210938 4.875 -4.640625 C 5.195312 -4.078125 5.640625 -3.632812 6.203125 -3.3125 C 6.765625 -2.988281 7.410156 -2.828125 8.140625 -2.828125 C 8.859375 -2.828125 9.535156 -2.972656 10.171875 -3.265625 Z M 10.171875 -6.890625 "/></g></g></g><g fill="#00525a" fill-opacity="1"><g transform="translate(155.993824, 39.269635)"><g><path d="M 7.40625 0.265625 C 5.445312 0.265625 3.921875 -0.265625 2.828125 -1.328125 C 1.742188 -2.398438 1.203125 -3.921875 1.203125 -5.890625 L 1.203125 -13.203125 L 4.9375 -13.203125 L 4.9375 -6 C 4.9375 -3.882812 5.773438 -2.828125 7.453125 -2.828125 C 9.109375 -2.828125 9.9375 -3.882812 9.9375 -6 L 9.9375 -13.203125 L 13.609375 -13.203125 L 13.609375 -5.890625 C 13.609375 -3.921875 13.066406 -2.398438 11.984375 -1.328125 C 10.898438 -0.265625 9.375 0.265625 7.40625 0.265625 Z M 7.40625 0.265625 "/></g></g></g><g fill="#00525a" fill-opacity="1"><g transform="translate(172.800576, 39.269635)"><g><path d="M 11.921875 -2.890625 L 11.921875 0 L 1.3125 0 L 1.3125 -13.203125 L 11.671875 -13.203125 L 11.671875 -10.3125 L 5.015625 -10.3125 L 5.015625 -8.09375 L 10.875 -8.09375 L 10.875 -5.296875 L 5.015625 -5.296875 L 5.015625 -2.890625 Z M 11.921875 -2.890625 "/></g></g></g><g fill="#00525a" fill-opacity="1"><g transform="translate(187.457024, 39.269635)"><g><path d="M 1.3125 -13.203125 L 5.046875 -13.203125 L 5.046875 -2.953125 L 11.359375 -2.953125 L 11.359375 0 L 1.3125 0 Z M 1.3125 -13.203125 "/></g></g></g><g fill="#00525a" fill-opacity="1"><g transform="translate(62.848696, 59.377029)"><g><path d="M 10.171875 -6.890625 L 13.46875 -6.890625 L 13.46875 -1.421875 C 12.707031 -0.878906 11.835938 -0.460938 10.859375 -0.171875 C 9.878906 0.117188 8.898438 0.265625 7.921875 0.265625 C 6.535156 0.265625 5.289062 -0.0234375 4.1875 -0.609375 C 3.082031 -1.191406 2.210938 -2.003906 1.578125 -3.046875 C 0.953125 -4.097656 0.640625 -5.28125 0.640625 -6.59375 C 0.640625 -7.914062 0.953125 -9.097656 1.578125 -10.140625 C 2.210938 -11.191406 3.085938 -12.007812 4.203125 -12.59375 C 5.328125 -13.175781 6.59375 -13.46875 8 -13.46875 C 9.226562 -13.46875 10.332031 -13.257812 11.3125 -12.84375 C 12.289062 -12.425781 13.109375 -11.828125 13.765625 -11.046875 L 11.390625 -8.90625 C 10.492188 -9.882812 9.425781 -10.375 8.1875 -10.375 C 7.050781 -10.375 6.132812 -10.03125 5.4375 -9.34375 C 4.75 -8.65625 4.40625 -7.738281 4.40625 -6.59375 C 4.40625 -5.863281 4.5625 -5.210938 4.875 -4.640625 C 5.195312 -4.078125 5.640625 -3.632812 6.203125 -3.3125 C 6.765625 -2.988281 7.410156 -2.828125 8.140625 -2.828125 C 8.859375 -2.828125 9.535156 -2.972656 10.171875 -3.265625 Z M 10.171875 -6.890625 "/></g></g></g><g fill="#00525a" fill-opacity="1"><g transform="translate(79.353659, 59.377029)"><g><path d="M 7.984375 0.265625 C 6.585938 0.265625 5.332031 -0.03125 4.21875 -0.625 C 3.101562 -1.21875 2.226562 -2.035156 1.59375 -3.078125 C 0.957031 -4.117188 0.640625 -5.289062 0.640625 -6.59375 C 0.640625 -7.90625 0.957031 -9.082031 1.59375 -10.125 C 2.226562 -11.164062 3.101562 -11.984375 4.21875 -12.578125 C 5.332031 -13.171875 6.585938 -13.46875 7.984375 -13.46875 C 9.378906 -13.46875 10.628906 -13.171875 11.734375 -12.578125 C 12.847656 -11.984375 13.722656 -11.164062 14.359375 -10.125 C 14.992188 -9.082031 15.3125 -7.90625 15.3125 -6.59375 C 15.3125 -5.289062 14.992188 -4.117188 14.359375 -3.078125 C 13.722656 -2.035156 12.847656 -1.21875 11.734375 -0.625 C 10.628906 -0.03125 9.378906 0.265625 7.984375 0.265625 Z M 7.984375 -2.828125 C 8.648438 -2.828125 9.25 -2.984375 9.78125 -3.296875 C 10.320312 -3.609375 10.75 -4.050781 11.0625 -4.625 C 11.382812 -5.195312 11.546875 -5.851562 11.546875 -6.59375 C 11.546875 -7.34375 11.382812 -8.003906 11.0625 -8.578125 C 10.75 -9.148438 10.320312 -9.59375 9.78125 -9.90625 C 9.25 -10.21875 8.648438 -10.375 7.984375 -10.375 C 7.316406 -10.375 6.710938 -10.21875 6.171875 -9.90625 C 5.628906 -9.59375 5.195312 -9.148438 4.875 -8.578125 C 4.5625 -8.003906 4.40625 -7.34375 4.40625 -6.59375 C 4.40625 -5.851562 4.5625 -5.195312 4.875 -4.625 C 5.195312 -4.050781 5.628906 -3.609375 6.171875 -3.296875 C 6.710938 -2.984375 7.316406 -2.828125 7.984375 -2.828125 Z M 7.984375 -2.828125 "/></g></g></g><g fill="#00525a" fill-opacity="1"><g transform="translate(97.292161, 59.377029)"><g><path d="M 13.234375 0 L 13.203125 -7 L 9.8125 -1.296875 L 8.140625 -1.296875 L 4.765625 -6.8125 L 4.765625 0 L 1.3125 0 L 1.3125 -13.203125 L 4.390625 -13.203125 L 9.03125 -5.578125 L 13.5625 -13.203125 L 16.640625 -13.203125 L 16.671875 0 Z M 13.234375 0 "/></g></g></g><g fill="#00525a" fill-opacity="1"><g transform="translate(117.267802, 59.377029)"><g><path d="M 11.921875 -2.890625 L 11.921875 0 L 1.3125 0 L 1.3125 -13.203125 L 11.671875 -13.203125 L 11.671875 -10.3125 L 5.015625 -10.3125 L 5.015625 -8.09375 L 10.875 -8.09375 L 10.875 -5.296875 L 5.015625 -5.296875 L 5.015625 -2.890625 Z M 11.921875 -2.890625 "/></g></g></g><g fill="#00525a" fill-opacity="1"><g transform="translate(131.92425, 59.377029)"><g><path d="M 12.484375 -2.953125 L 12.484375 0 L 0.65625 0 L 0.65625 -2.34375 L 7.3125 -10.234375 L 0.828125 -10.234375 L 0.828125 -13.203125 L 12.203125 -13.203125 L 12.203125 -10.859375 L 5.546875 -2.953125 Z M 12.484375 -2.953125 "/></g></g></g><g fill="#00525a" fill-opacity="1"><g transform="translate(146.712732, 59.377029)"><g/></g></g><g fill="#00525a" fill-opacity="1"><g transform="translate(154.18263, 59.377029)"><g><path d="M 10.171875 -6.890625 L 13.46875 -6.890625 L 13.46875 -1.421875 C 12.707031 -0.878906 11.835938 -0.460938 10.859375 -0.171875 C 9.878906 0.117188 8.898438 0.265625 7.921875 0.265625 C 6.535156 0.265625 5.289062 -0.0234375 4.1875 -0.609375 C 3.082031 -1.191406 2.210938 -2.003906 1.578125 -3.046875 C 0.953125 -4.097656 0.640625 -5.28125 0.640625 -6.59375 C 0.640625 -7.914062 0.953125 -9.097656 1.578125 -10.140625 C 2.210938 -11.191406 3.085938 -12.007812 4.203125 -12.59375 C 5.328125 -13.175781 6.59375 -13.46875 8 -13.46875 C 9.226562 -13.46875 10.332031 -13.257812 11.3125 -12.84375 C 12.289062 -12.425781 13.109375 -11.828125 13.765625 -11.046875 L 11.390625 -8.90625 C 10.492188 -9.882812 9.425781 -10.375 8.1875 -10.375 C 7.050781 -10.375 6.132812 -10.03125 5.4375 -9.34375 C 4.75 -8.65625 4.40625 -7.738281 4.40625 -6.59375 C 4.40625 -5.863281 4.5625 -5.210938 4.875 -4.640625 C 5.195312 -4.078125 5.640625 -3.632812 6.203125 -3.3125 C 6.765625 -2.988281 7.410156 -2.828125 8.140625 -2.828125 C 8.859375 -2.828125 9.535156 -2.972656 10.171875 -3.265625 Z M 10.171875 -6.890625 "/></g></g></g><g fill="#00525a" fill-opacity="1"><g transform="translate(170.68759, 59.377029)"><g><path d="M 10.171875 -2.5625 L 4.578125 -2.5625 L 3.546875 0 L -0.265625 0 L 5.5625 -13.203125 L 9.234375 -13.203125 L 15.09375 0 L 11.203125 0 Z M 9.078125 -5.3125 L 7.375 -9.546875 L 5.671875 -5.3125 Z M 9.078125 -5.3125 "/></g></g></g><g fill="#00525a" fill-opacity="1"><g transform="translate(187.494343, 59.377029)"><g><path d="M 7.09375 -3.515625 L 5.046875 -3.515625 L 5.046875 0 L 1.3125 0 L 1.3125 -13.203125 L 7.359375 -13.203125 C 8.546875 -13.203125 9.578125 -13.003906 10.453125 -12.609375 C 11.335938 -12.210938 12.019531 -11.644531 12.5 -10.90625 C 12.976562 -10.175781 13.21875 -9.3125 13.21875 -8.3125 C 13.21875 -7.363281 12.992188 -6.53125 12.546875 -5.8125 C 12.097656 -5.101562 11.460938 -4.550781 10.640625 -4.15625 L 13.484375 0 L 9.484375 0 Z M 9.453125 -8.3125 C 9.453125 -8.925781 9.253906 -9.40625 8.859375 -9.75 C 8.472656 -10.09375 7.894531 -10.265625 7.125 -10.265625 L 5.046875 -10.265625 L 5.046875 -6.390625 L 7.125 -6.390625 C 7.894531 -6.390625 8.472656 -6.554688 8.859375 -6.890625 C 9.253906 -7.222656 9.453125 -7.695312 9.453125 -8.3125 Z M 9.453125 -8.3125 "/></g></g></g><g fill="#00525a" fill-opacity="1"><g transform="translate(203.433435, 59.377029)"><g><path d="M 7.90625 0.265625 C 6.519531 0.265625 5.273438 -0.0234375 4.171875 -0.609375 C 3.078125 -1.191406 2.210938 -2.003906 1.578125 -3.046875 C 0.953125 -4.097656 0.640625 -5.28125 0.640625 -6.59375 C 0.640625 -7.914062 0.953125 -9.097656 1.578125 -10.140625 C 2.210938 -11.191406 3.078125 -12.007812 4.171875 -12.59375 C 5.273438 -13.175781 6.519531 -13.46875 7.90625 -13.46875 C 9.113281 -13.46875 10.195312 -13.253906 11.15625 -12.828125 C 12.125 -12.398438 12.929688 -11.78125 13.578125 -10.96875 L 11.203125 -8.828125 C 10.347656 -9.859375 9.3125 -10.375 8.09375 -10.375 C 7.375 -10.375 6.734375 -10.21875 6.171875 -9.90625 C 5.617188 -9.59375 5.1875 -9.148438 4.875 -8.578125 C 4.5625 -8.003906 4.40625 -7.34375 4.40625 -6.59375 C 4.40625 -5.851562 4.5625 -5.195312 4.875 -4.625 C 5.1875 -4.050781 5.617188 -3.609375 6.171875 -3.296875 C 6.734375 -2.984375 7.375 -2.828125 8.09375 -2.828125 C 9.3125 -2.828125 10.347656 -3.34375 11.203125 -4.375 L 13.578125 -2.21875 C 12.929688 -1.414062 12.125 -0.800781 11.15625 -0.375 C 10.195312 0.0507812 9.113281 0.265625 7.90625 0.265625 Z M 7.90625 0.265625 "/></g></g></g><g fill="#00525a" fill-opacity="1"><g transform="translate(219.3348, 59.377029)"><g><path d="M 1.3125 -13.203125 L 5.046875 -13.203125 L 5.046875 0 L 1.3125 0 Z M 3.859375 -17.140625 L 7.453125 -17.140625 L 3.90625 -14.28125 L 1.34375 -14.28125 Z M 3.859375 -17.140625 "/></g></g></g><g fill="#00525a" fill-opacity="1"><g transform="translate(227.710085, 59.377029)"><g><path d="M 10.171875 -2.5625 L 4.578125 -2.5625 L 3.546875 0 L -0.265625 0 L 5.5625 -13.203125 L 9.234375 -13.203125 L 15.09375 0 L 11.203125 0 Z M 9.078125 -5.3125 L 7.375 -9.546875 L 5.671875 -5.3125 Z M 9.078125 -5.3125 "/></g></g></g></svg>